<svg xmlns="http://www.w3.org/2000/svg" xmlns:xlink="http://www.w3.org/1999/xlink" width="1080" zoomAndPan="magnify" viewBox="0 0 810 323.999988" height="432" preserveAspectRatio="xMidYMid meet" version="1.0"><defs><g/><clipPath id="e66cd46d29"><path d="M 0 34.636719 L 324 34.636719 L 324 304.636719 L 0 304.636719 Z M 0 34.636719 " clip-rule="nonzero"/></clipPath><clipPath id="95633b736b"><path d="M 0.320312 3 L 111 3 L 111 117 L 0.320312 117 Z M 0.320312 3 " clip-rule="nonzero"/></clipPath><clipPath id="365ca6c9d9"><rect x="0" width="483" y="0" height="286"/></clipPath></defs><g clip-path="url(#e66cd46d29)"><path fill="#088478" d="M 206.035156 165.824219 L 323.675781 75.832031 L 188.183594 108.070312 L 165.488281 34.636719 L 118.503906 124.648438 L 0.0117188 152.839844 L 88.070312 182.957031 L 24.539062 304.667969 L 154.117188 205.542969 L 225.902344 230.09375 Z M 206.035156 165.824219 " fill-opacity="1" fill-rule="nonzero"/></g><g transform="matrix(1, 0, 0, 1, 322, 25)"><g clip-path="url(#365ca6c9d9)"><g clip-path="url(#95633b736b)"><g fill="#000000" fill-opacity="1"><g transform="translate(1.683642, 115.428436)"><g><path d="M 25.71875 -96.890625 C 27.8125 -102.128906 29.664062 -106.007812 31.28125 -108.53125 C 32.90625 -111.0625 34.53125 -112.328125 36.15625 -112.328125 C 36.726562 -112.328125 39.015625 -112.160156 43.015625 -111.828125 C 47.015625 -111.492188 51.160156 -111.328125 55.453125 -111.328125 C 58.585938 -111.328125 64.347656 -111.660156 72.734375 -112.328125 C 74.265625 -112.328125 75.765625 -111.109375 77.234375 -108.671875 C 78.710938 -106.242188 80.5 -102.457031 82.59375 -97.3125 C 87.644531 -84.832031 91.910156 -71.472656 95.390625 -57.234375 C 98.867188 -42.992188 101.609375 -29.679688 103.609375 -17.296875 C 103.984375 -15.003906 104.457031 -13.238281 105.03125 -12 C 105.601562 -10.757812 106.269531 -9.570312 107.03125 -8.4375 C 107.601562 -7.664062 108.007812 -6.992188 108.25 -6.421875 C 108.488281 -5.859375 108.609375 -5.097656 108.609375 -4.140625 C 108.609375 -2.523438 108.203125 -1.265625 107.390625 -0.359375 C 106.578125 0.546875 105.457031 1 104.03125 1 C 103.5625 1 101.179688 0.832031 96.890625 0.5 C 92.597656 0.164062 88.597656 0 84.890625 0 C 80.023438 0 76.09375 0.164062 73.09375 0.5 C 70.09375 0.832031 68.257812 1 67.59375 1 C 66.070312 1 64.832031 0.5 63.875 -0.5 C 62.925781 -1.5 62.453125 -2.8125 62.453125 -4.4375 C 62.453125 -5.476562 62.878906 -6.664062 63.734375 -8 C 64.972656 -9.90625 65.59375 -11.765625 65.59375 -13.578125 C 65.59375 -16.628906 65.046875 -18.796875 63.953125 -20.078125 C 62.859375 -21.359375 60.976562 -22 58.3125 -22 L 42.734375 -22 C 39.585938 -22 37.535156 -21.285156 36.578125 -19.859375 C 35.628906 -18.429688 35.15625 -16.242188 35.15625 -13.296875 C 35.15625 -11.484375 35.679688 -9.863281 36.734375 -8.4375 C 36.828125 -8.332031 37.0625 -7.875 37.4375 -7.0625 C 37.820312 -6.257812 38.015625 -5.332031 38.015625 -4.28125 C 38.015625 -2.851562 37.628906 -1.613281 36.859375 -0.5625 C 36.097656 0.476562 35.050781 1 33.71875 1 C 32.382812 1 30.429688 0.832031 27.859375 0.5 C 25.296875 0.164062 22.582031 0 19.71875 0 C 15.53125 0 11.195312 0.238281 6.71875 0.71875 L 3.71875 1 C 2.289062 1 1.125 0.5 0.21875 -0.5 C -0.6875 -1.5 -1.140625 -2.757812 -1.140625 -4.28125 C -1.140625 -5.050781 -0.972656 -5.789062 -0.640625 -6.5 C -0.304688 -7.21875 0.429688 -8.289062 1.578125 -9.71875 C 2.242188 -10.664062 2.835938 -11.898438 3.359375 -13.421875 C 3.878906 -14.953125 4.617188 -18.484375 5.578125 -24.015625 C 6.816406 -31.722656 9.289062 -42.863281 13 -57.4375 C 16.71875 -72.019531 20.957031 -85.171875 25.71875 -96.890625 Z M 46.4375 -74.453125 C 42.726562 -64.160156 40.875 -56.875 40.875 -52.59375 C 40.875 -51.351562 41.253906 -50.421875 42.015625 -49.796875 C 42.773438 -49.179688 44.109375 -48.875 46.015625 -48.875 L 55.453125 -48.875 C 58.492188 -48.875 60.015625 -50.160156 60.015625 -52.734375 C 60.015625 -55.210938 59.421875 -58.710938 58.234375 -63.234375 C 57.046875 -67.765625 56.304688 -70.363281 56.015625 -71.03125 C 53.734375 -77.976562 51.972656 -81.453125 50.734375 -81.453125 C 49.972656 -81.453125 49.304688 -80.972656 48.734375 -80.015625 C 48.160156 -79.066406 47.394531 -77.210938 46.4375 -74.453125 Z M 46.4375 -74.453125 "/></g></g></g></g><g fill="#000000" fill-opacity="1"><g transform="translate(109.284057, 115.428436)"><g><path d="M 43.59375 -114.046875 C 48.925781 -114.046875 55.257812 -113.1875 62.59375 -111.46875 C 64.6875 -110.988281 65.972656 -110.75 66.453125 -110.75 C 67.023438 -110.75 67.8125 -110.988281 68.8125 -111.46875 C 69.8125 -111.945312 70.832031 -112.1875 71.875 -112.1875 C 73.6875 -112.1875 75.140625 -111.6875 76.234375 -110.6875 C 77.335938 -109.6875 77.890625 -108.375 77.890625 -106.75 L 77.734375 -99.3125 C 77.734375 -97.125 78.066406 -94.625 78.734375 -91.8125 C 79.398438 -89 79.898438 -86.804688 80.234375 -85.234375 C 80.566406 -83.671875 80.734375 -82.789062 80.734375 -82.59375 C 80.734375 -81.644531 80.304688 -80.691406 79.453125 -79.734375 C 78.597656 -78.785156 77.503906 -78.3125 76.171875 -78.3125 C 75.210938 -78.3125 73.019531 -79.070312 69.59375 -80.59375 C 65.875 -82.125 62.703125 -83.289062 60.078125 -84.09375 C 57.460938 -84.90625 54.726562 -85.3125 51.875 -85.3125 C 49.394531 -85.3125 47.367188 -84.71875 45.796875 -83.53125 C 44.222656 -82.34375 43.4375 -80.601562 43.4375 -78.3125 C 43.4375 -76.125 44.222656 -74.382812 45.796875 -73.09375 C 47.367188 -71.8125 50.15625 -70.597656 54.15625 -69.453125 C 60.632812 -67.640625 66.113281 -65.46875 70.59375 -62.9375 C 75.070312 -60.414062 78.644531 -56.84375 81.3125 -52.21875 C 83.976562 -47.601562 85.3125 -41.675781 85.3125 -34.4375 C 85.3125 -26.34375 83.476562 -19.507812 79.8125 -13.9375 C 76.144531 -8.363281 71.210938 -4.191406 65.015625 -1.421875 C 58.828125 1.335938 51.875 2.71875 44.15625 2.71875 C 37.769531 2.71875 29.71875 1.570312 20 -0.71875 C 18.289062 -1.1875 17.289062 -1.421875 17 -1.421875 C 16.332031 -1.421875 15.378906 -1.085938 14.140625 -0.421875 C 12.910156 0.242188 11.722656 0.578125 10.578125 0.578125 C 8.003906 0.578125 6.382812 -0.113281 5.71875 -1.5 C 5.050781 -2.882812 4.71875 -4.957031 4.71875 -7.71875 C 4.71875 -11.625 4.503906 -14.910156 4.078125 -17.578125 C 3.648438 -20.242188 3.097656 -23.003906 2.421875 -25.859375 C 1.753906 -28.535156 1.421875 -30.441406 1.421875 -31.578125 C 1.421875 -32.722656 1.875 -33.769531 2.78125 -34.71875 C 3.6875 -35.675781 4.757812 -36.15625 6 -36.15625 C 6.851562 -36.15625 7.78125 -35.941406 8.78125 -35.515625 C 9.789062 -35.085938 10.910156 -34.539062 12.140625 -33.875 C 12.910156 -33.488281 14.769531 -32.53125 17.71875 -31 C 20.675781 -29.476562 23.628906 -28.289062 26.578125 -27.4375 C 29.535156 -26.582031 32.347656 -26.15625 35.015625 -26.15625 C 37.390625 -26.15625 39.289062 -26.75 40.71875 -27.9375 C 42.15625 -29.125 42.875 -30.863281 42.875 -33.15625 C 42.875 -35.632812 42.039062 -37.441406 40.375 -38.578125 C 38.707031 -39.722656 35.300781 -41.109375 30.15625 -42.734375 C 20.914062 -45.679688 14.101562 -49.628906 9.71875 -54.578125 C 5.332031 -59.535156 3.140625 -66.640625 3.140625 -75.890625 C 3.140625 -84.171875 4.925781 -91.191406 8.5 -96.953125 C 12.070312 -102.722656 16.90625 -107.015625 23 -109.828125 C 29.101562 -112.640625 35.96875 -114.046875 43.59375 -114.046875 Z M 43.59375 -114.046875 "/></g></g></g><g fill="#000000" fill-opacity="1"><g transform="translate(195.735916, 115.428436)"><g><path d="M 9.140625 -112.328125 C 10.191406 -112.328125 12.429688 -112.226562 15.859375 -112.03125 C 23.765625 -111.5625 32.390625 -111.328125 41.734375 -111.328125 C 46.492188 -111.328125 53.640625 -111.5625 63.171875 -112.03125 L 71.453125 -112.328125 C 73.265625 -112.328125 74.625 -112.085938 75.53125 -111.609375 C 76.4375 -111.128906 77.125 -110.175781 77.59375 -108.75 C 78.070312 -107.320312 78.3125 -105.128906 78.3125 -102.171875 C 78.40625 -98.648438 78.640625 -95.601562 79.015625 -93.03125 C 79.398438 -90.457031 79.925781 -87.695312 80.59375 -84.75 C 81.070312 -82.363281 81.3125 -80.789062 81.3125 -80.03125 C 81.3125 -78.789062 80.878906 -77.71875 80.015625 -76.8125 C 79.160156 -75.90625 77.972656 -75.453125 76.453125 -75.453125 C 75.304688 -75.453125 73.78125 -75.976562 71.875 -77.03125 C 70.445312 -77.789062 69.085938 -78.382812 67.796875 -78.8125 C 66.515625 -79.238281 65.066406 -79.453125 63.453125 -79.453125 C 61.828125 -79.453125 60.703125 -79.164062 60.078125 -78.59375 C 59.460938 -78.019531 59.15625 -76.972656 59.15625 -75.453125 L 59.15625 -16.296875 C 59.15625 -13.910156 59.347656 -12.144531 59.734375 -11 C 60.117188 -9.851562 60.644531 -8.804688 61.3125 -7.859375 C 61.78125 -7.191406 62.109375 -6.59375 62.296875 -6.0625 C 62.492188 -5.539062 62.59375 -4.851562 62.59375 -4 C 62.59375 -2.476562 62.140625 -1.265625 61.234375 -0.359375 C 60.328125 0.546875 59.160156 1 57.734375 1 C 57.160156 1 55.46875 0.832031 52.65625 0.5 C 49.84375 0.164062 45.914062 0 40.875 0 C 36.300781 0 30.296875 0.332031 22.859375 1 C 21.335938 1 20.125 0.523438 19.21875 -0.421875 C 18.3125 -1.378906 17.859375 -2.664062 17.859375 -4.28125 C 17.859375 -5.332031 18.289062 -6.476562 19.15625 -7.71875 C 19.820312 -8.863281 20.367188 -10.050781 20.796875 -11.28125 C 21.222656 -12.519531 21.4375 -14.285156 21.4375 -16.578125 L 21.4375 -75.03125 C 21.4375 -76.832031 21.101562 -78.09375 20.4375 -78.8125 C 19.769531 -79.53125 18.484375 -79.890625 16.578125 -79.890625 C 14.859375 -79.890625 13.472656 -79.671875 12.421875 -79.234375 C 11.378906 -78.804688 10.191406 -78.210938 8.859375 -77.453125 C 8.671875 -77.359375 8.144531 -77.046875 7.28125 -76.515625 C 6.425781 -75.992188 5.476562 -75.734375 4.4375 -75.734375 C 2.8125 -75.734375 1.5 -76.207031 0.5 -77.15625 C -0.5 -78.113281 -1 -79.117188 -1 -80.171875 C -1 -81.023438 -0.664062 -82.882812 0 -85.75 C 1.71875 -91.84375 2.71875 -98.128906 3 -104.609375 C 3.1875 -107.554688 3.660156 -109.578125 4.421875 -110.671875 C 5.191406 -111.773438 6.765625 -112.328125 9.140625 -112.328125 Z M 9.140625 -112.328125 "/></g></g></g><g fill="#000000" fill-opacity="1"><g transform="translate(275.61457, 115.428436)"><g><path d="M 9.4375 -112.328125 C 11.53125 -112.328125 14.195312 -112.160156 17.4375 -111.828125 C 20.675781 -111.492188 23.4375 -111.328125 25.71875 -111.328125 C 28.289062 -111.328125 30.550781 -111.375 32.5 -111.46875 C 34.457031 -111.5625 37.148438 -111.726562 40.578125 -111.96875 C 44.015625 -112.207031 47.253906 -112.328125 50.296875 -112.328125 C 66.398438 -112.328125 78.359375 -109.039062 86.171875 -102.46875 C 93.984375 -95.894531 97.890625 -86.703125 97.890625 -74.890625 C 97.890625 -69.453125 96.984375 -64.398438 95.171875 -59.734375 C 93.359375 -55.066406 90.40625 -51.351562 86.3125 -48.59375 C 85.738281 -48.300781 84.972656 -47.773438 84.015625 -47.015625 C 83.066406 -46.253906 82.59375 -45.726562 82.59375 -45.4375 C 82.59375 -45.15625 82.785156 -44.773438 83.171875 -44.296875 C 83.554688 -43.828125 84.175781 -43.160156 85.03125 -42.296875 C 87.789062 -39.347656 90.410156 -35.515625 92.890625 -30.796875 C 95.367188 -26.078125 97.273438 -21.003906 98.609375 -15.578125 C 98.890625 -14.617188 99.335938 -13.378906 99.953125 -11.859375 C 100.578125 -10.335938 101.269531 -9.050781 102.03125 -8 C 102.507812 -7.238281 102.84375 -6.617188 103.03125 -6.140625 C 103.226562 -5.671875 103.328125 -5.003906 103.328125 -4.140625 C 103.328125 -2.523438 102.800781 -1.265625 101.75 -0.359375 C 100.695312 0.546875 99.269531 1 97.46875 1 C 95.65625 1 93.34375 0.832031 90.53125 0.5 C 87.71875 0.164062 84.503906 0 80.890625 0 C 77.359375 0 74.046875 0.164062 70.953125 0.5 C 67.859375 0.832031 66.023438 1 65.453125 1 C 64.117188 1 63.019531 0.5 62.15625 -0.5 C 61.300781 -1.5 60.875 -2.664062 60.875 -4 C 60.875 -4.570312 61.039062 -5.5 61.375 -6.78125 C 61.707031 -8.070312 61.875 -9.050781 61.875 -9.71875 C 61.875 -11.71875 60.894531 -14.957031 58.9375 -19.4375 C 56.988281 -23.914062 54.703125 -27.941406 52.078125 -31.515625 C 49.460938 -35.085938 47.203125 -36.875 45.296875 -36.875 C 43.867188 -36.875 43.15625 -35.820312 43.15625 -33.71875 L 43.15625 -15.71875 C 43.15625 -13.71875 43.320312 -12.238281 43.65625 -11.28125 C 43.988281 -10.332031 44.488281 -9.285156 45.15625 -8.140625 C 46.113281 -7.003906 46.59375 -5.671875 46.59375 -4.140625 C 46.59375 -2.617188 46.140625 -1.378906 45.234375 -0.421875 C 44.328125 0.523438 43.160156 1 41.734375 1 C 33.054688 0.332031 27.382812 0 24.71875 0 C 22.144531 0 19.691406 0.117188 17.359375 0.359375 C 15.023438 0.597656 13.359375 0.765625 12.359375 0.859375 C 11.359375 0.953125 10.332031 1 9.28125 1 C 7.757812 1 6.519531 0.523438 5.5625 -0.421875 C 4.613281 -1.378906 4.140625 -2.617188 4.140625 -4.140625 C 4.140625 -5.191406 4.570312 -6.476562 5.4375 -8 C 6.195312 -9.050781 6.765625 -10.144531 7.140625 -11.28125 C 7.523438 -12.425781 7.71875 -13.90625 7.71875 -15.71875 L 7.71875 -95.609375 C 7.71875 -97.609375 7.523438 -99.15625 7.140625 -100.25 C 6.765625 -101.34375 6.242188 -102.367188 5.578125 -103.328125 C 5.191406 -103.890625 4.851562 -104.476562 4.5625 -105.09375 C 4.28125 -105.71875 4.140625 -106.460938 4.140625 -107.328125 C 4.140625 -108.847656 4.613281 -110.0625 5.5625 -110.96875 C 6.519531 -111.875 7.8125 -112.328125 9.4375 -112.328125 Z M 43.15625 -80.171875 L 43.15625 -64.59375 C 43.15625 -62.6875 43.609375 -61.519531 44.515625 -61.09375 C 45.421875 -60.664062 46.96875 -60.453125 49.15625 -60.453125 C 53.632812 -60.453125 56.945312 -61.570312 59.09375 -63.8125 C 61.238281 -66.050781 62.3125 -68.882812 62.3125 -72.3125 C 62.3125 -80.21875 57.832031 -84.171875 48.875 -84.171875 L 47.875 -84.171875 C 46.15625 -84.078125 44.9375 -83.765625 44.21875 -83.234375 C 43.507812 -82.710938 43.15625 -81.691406 43.15625 -80.171875 Z M 43.15625 -80.171875 "/></g></g></g><g fill="#000000" fill-opacity="1"><g transform="translate(377.499104, 115.428436)"><g><path d="M 51.59375 -114.1875 C 61.976562 -114.1875 70.882812 -111.539062 78.3125 -106.25 C 85.738281 -100.957031 91.378906 -93.878906 95.234375 -85.015625 C 99.097656 -76.160156 101.03125 -66.539062 101.03125 -56.15625 C 101.03125 -44.914062 99.242188 -34.863281 95.671875 -26 C 92.097656 -17.144531 86.617188 -10.144531 79.234375 -5 C 71.859375 0.144531 62.691406 2.71875 51.734375 2.71875 C 40.773438 2.71875 31.628906 0.191406 24.296875 -4.859375 C 16.960938 -9.910156 11.53125 -16.769531 8 -25.4375 C 4.476562 -34.101562 2.71875 -43.914062 2.71875 -54.875 C 2.71875 -67.644531 4.859375 -78.484375 9.140625 -87.390625 C 13.429688 -96.296875 19.269531 -102.988281 26.65625 -107.46875 C 34.039062 -111.945312 42.351562 -114.1875 51.59375 -114.1875 Z M 41.578125 -56.3125 C 41.578125 -46.875 42.21875 -39.890625 43.5 -35.359375 C 44.789062 -30.835938 47.582031 -28.578125 51.875 -28.578125 C 55.96875 -28.578125 58.707031 -30.882812 60.09375 -35.5 C 61.476562 -40.125 62.171875 -46.960938 62.171875 -56.015625 C 62.171875 -65.828125 61.429688 -72.851562 59.953125 -77.09375 C 58.472656 -81.332031 55.734375 -83.453125 51.734375 -83.453125 C 47.640625 -83.453125 44.921875 -81.210938 43.578125 -76.734375 C 42.242188 -72.265625 41.578125 -65.457031 41.578125 -56.3125 Z M 41.578125 -56.3125 "/></g></g></g><g fill="#e60160" fill-opacity="1"><g transform="translate(1.683642, 253.338759)"><g><path d="M 9.71875 -112.328125 L 13.578125 -112.1875 C 22.148438 -111.613281 33.535156 -111.328125 47.734375 -111.328125 C 54.398438 -111.328125 60.539062 -111.492188 66.15625 -111.828125 C 71.78125 -112.160156 75.023438 -112.328125 75.890625 -112.328125 C 77.984375 -112.328125 79.382812 -111.753906 80.09375 -110.609375 C 80.8125 -109.460938 81.265625 -107.984375 81.453125 -106.171875 C 82.117188 -99.703125 83.070312 -94.128906 84.3125 -89.453125 C 85.269531 -85.453125 85.75 -82.882812 85.75 -81.75 C 85.75 -80.601562 85.269531 -79.578125 84.3125 -78.671875 C 83.363281 -77.765625 82.222656 -77.3125 80.890625 -77.3125 C 80.117188 -77.3125 78.734375 -77.644531 76.734375 -78.3125 C 74.160156 -79.164062 71.375 -79.851562 68.375 -80.375 C 65.375 -80.90625 61.160156 -81.171875 55.734375 -81.171875 L 47.4375 -81.171875 C 45.820312 -81.171875 44.65625 -80.8125 43.9375 -80.09375 C 43.226562 -79.382812 42.875 -78.21875 42.875 -76.59375 L 42.875 -68.3125 C 42.875 -66.40625 43.253906 -65.164062 44.015625 -64.59375 C 44.773438 -64.019531 46.25 -63.734375 48.4375 -63.734375 L 59.015625 -63.734375 C 61.679688 -63.734375 64.632812 -64.253906 67.875 -65.296875 C 71.113281 -66.347656 73.304688 -66.875 74.453125 -66.875 C 75.878906 -66.875 77.046875 -66.46875 77.953125 -65.65625 C 78.859375 -64.851562 79.3125 -63.738281 79.3125 -62.3125 C 79.3125 -61.738281 79.191406 -59.851562 78.953125 -56.65625 C 78.710938 -53.46875 78.59375 -51.398438 78.59375 -50.453125 C 78.59375 -48.253906 78.832031 -43.441406 79.3125 -36.015625 C 79.3125 -34.773438 78.859375 -33.65625 77.953125 -32.65625 C 77.046875 -31.65625 75.832031 -31.15625 74.3125 -31.15625 C 72.882812 -31.15625 71.644531 -31.320312 70.59375 -31.65625 C 69.550781 -31.988281 68.191406 -32.460938 66.515625 -33.078125 C 64.847656 -33.703125 62.207031 -34.015625 58.59375 -34.015625 L 50.015625 -34.015625 C 48.296875 -34.015625 46.984375 -33.679688 46.078125 -33.015625 C 45.179688 -32.347656 44.734375 -31.15625 44.734375 -29.4375 L 44.734375 -16.296875 C 44.734375 -14.296875 44.921875 -12.722656 45.296875 -11.578125 C 45.679688 -10.429688 46.253906 -9.257812 47.015625 -8.0625 C 47.773438 -6.875 48.15625 -5.613281 48.15625 -4.28125 C 48.15625 -2.664062 47.75 -1.378906 46.9375 -0.421875 C 46.132812 0.523438 44.96875 1 43.4375 1 C 34.394531 0.332031 28.394531 0 25.4375 0 C 22.195312 0 18.863281 0.164062 15.4375 0.5 C 12.007812 0.832031 9.957031 1 9.28125 1 C 7.757812 1 6.519531 0.523438 5.5625 -0.421875 C 4.613281 -1.378906 4.140625 -2.617188 4.140625 -4.140625 C 4.140625 -5.378906 4.546875 -6.617188 5.359375 -7.859375 C 6.171875 -9.097656 6.765625 -10.265625 7.140625 -11.359375 C 7.523438 -12.453125 7.71875 -14.046875 7.71875 -16.140625 L 7.71875 -95.3125 C 7.71875 -97.3125 7.523438 -98.835938 7.140625 -99.890625 C 6.765625 -100.941406 6.171875 -102.226562 5.359375 -103.75 C 4.546875 -105.269531 4.140625 -106.460938 4.140625 -107.328125 C 4.140625 -108.941406 4.613281 -110.175781 5.5625 -111.03125 C 6.519531 -111.894531 7.90625 -112.328125 9.71875 -112.328125 Z M 9.71875 -112.328125 "/></g></g></g><g fill="#e60160" fill-opacity="1"><g transform="translate(87.563922, 253.338759)"><g><path d="M 9.578125 -112.328125 C 10.242188 -112.328125 11.71875 -112.226562 14 -112.03125 C 20.675781 -111.5625 30.539062 -111.328125 43.59375 -111.328125 C 54.632812 -111.328125 65.015625 -111.613281 74.734375 -112.1875 C 75.785156 -112.28125 76.882812 -112.328125 78.03125 -112.328125 C 79.832031 -112.328125 81.160156 -111.800781 82.015625 -110.75 C 82.878906 -109.707031 83.503906 -107.566406 83.890625 -104.328125 C 84.460938 -98.035156 85.316406 -93.128906 86.453125 -89.609375 C 86.835938 -87.890625 87.03125 -86.742188 87.03125 -86.171875 C 87.03125 -85.023438 86.53125 -84.070312 85.53125 -83.3125 C 84.53125 -82.550781 83.410156 -82.171875 82.171875 -82.171875 C 81.597656 -82.171875 80.90625 -82.289062 80.09375 -82.53125 C 79.289062 -82.769531 78.648438 -82.9375 78.171875 -83.03125 C 72.171875 -84.9375 65.21875 -85.890625 57.3125 -85.890625 L 47.875 -85.890625 C 46.0625 -85.890625 44.84375 -85.53125 44.21875 -84.8125 C 43.601562 -84.101562 43.296875 -82.9375 43.296875 -81.3125 L 43.296875 -73.734375 C 43.296875 -72.023438 43.722656 -70.929688 44.578125 -70.453125 C 45.441406 -69.972656 47.015625 -69.734375 49.296875 -69.734375 L 60.59375 -69.734375 C 64.3125 -69.734375 67.625 -70.1875 70.53125 -71.09375 C 73.4375 -72 75.222656 -72.453125 75.890625 -72.453125 C 77.410156 -72.453125 78.570312 -71.972656 79.375 -71.015625 C 80.1875 -70.066406 80.59375 -68.925781 80.59375 -67.59375 C 80.59375 -66.644531 80.5 -64.976562 80.3125 -62.59375 C 80.125 -60.207031 80.03125 -58.394531 80.03125 -57.15625 L 80.59375 -47.15625 C 80.59375 -46.113281 80.140625 -45.09375 79.234375 -44.09375 C 78.335938 -43.09375 77.171875 -42.59375 75.734375 -42.59375 C 75.066406 -42.59375 73.78125 -42.875 71.875 -43.4375 C 69.976562 -44.007812 68.242188 -44.460938 66.671875 -44.796875 C 65.097656 -45.128906 62.976562 -45.296875 60.3125 -45.296875 L 48.296875 -45.296875 C 46.585938 -45.296875 45.328125 -45.007812 44.515625 -44.4375 C 43.703125 -43.875 43.296875 -42.734375 43.296875 -41.015625 L 43.296875 -33.015625 C 43.296875 -31.296875 43.628906 -30.171875 44.296875 -29.640625 C 44.960938 -29.117188 46.15625 -28.8125 47.875 -28.71875 C 51.300781 -28.53125 54.78125 -28.4375 58.3125 -28.4375 C 63.738281 -28.4375 68.191406 -28.769531 71.671875 -29.4375 C 75.148438 -30.101562 78.410156 -30.960938 81.453125 -32.015625 C 82.878906 -32.585938 83.976562 -32.875 84.75 -32.875 C 86.082031 -32.875 87.222656 -32.441406 88.171875 -31.578125 C 89.128906 -30.722656 89.609375 -29.722656 89.609375 -28.578125 C 89.609375 -27.335938 89.128906 -25.289062 88.171875 -22.4375 C 87.597656 -20.4375 86.953125 -17.484375 86.234375 -13.578125 C 85.523438 -9.671875 85.171875 -7.191406 85.171875 -6.140625 C 85.078125 -3.765625 84.648438 -1.976562 83.890625 -0.78125 C 83.128906 0.40625 81.695312 1 79.59375 1 L 72.734375 0.71875 C 59.679688 0.238281 48.441406 0 39.015625 0 C 28.148438 0 20.644531 0.164062 16.5 0.5 C 12.363281 0.832031 9.957031 1 9.28125 1 C 7.664062 1 6.40625 0.523438 5.5 -0.421875 C 4.59375 -1.378906 4.140625 -2.664062 4.140625 -4.28125 C 4.140625 -5.050781 4.257812 -5.71875 4.5 -6.28125 C 4.738281 -6.851562 5.144531 -7.566406 5.71875 -8.421875 C 6.289062 -9.285156 6.765625 -10.285156 7.140625 -11.421875 C 7.523438 -12.566406 7.71875 -14.191406 7.71875 -16.296875 L 7.71875 -95.3125 C 7.71875 -97.3125 7.523438 -98.835938 7.140625 -99.890625 C 6.765625 -100.941406 6.3125 -101.894531 5.78125 -102.75 C 5.257812 -103.601562 4.851562 -104.363281 4.5625 -105.03125 C 4.28125 -105.695312 4.140625 -106.460938 4.140625 -107.328125 C 4.140625 -108.847656 4.613281 -110.0625 5.5625 -110.96875 C 6.519531 -111.875 7.859375 -112.328125 9.578125 -112.328125 Z M 9.578125 -112.328125 "/></g></g></g><g fill="#e60160" fill-opacity="1"><g transform="translate(178.588451, 253.338759)"><g><path d="M 43.59375 -114.046875 C 48.925781 -114.046875 55.257812 -113.1875 62.59375 -111.46875 C 64.6875 -110.988281 65.972656 -110.75 66.453125 -110.75 C 67.023438 -110.75 67.8125 -110.988281 68.8125 -111.46875 C 69.8125 -111.945312 70.832031 -112.1875 71.875 -112.1875 C 73.6875 -112.1875 75.140625 -111.6875 76.234375 -110.6875 C 77.335938 -109.6875 77.890625 -108.375 77.890625 -106.75 L 77.734375 -99.3125 C 77.734375 -97.125 78.066406 -94.625 78.734375 -91.8125 C 79.398438 -89 79.898438 -86.804688 80.234375 -85.234375 C 80.566406 -83.671875 80.734375 -82.789062 80.734375 -82.59375 C 80.734375 -81.644531 80.304688 -80.691406 79.453125 -79.734375 C 78.597656 -78.785156 77.503906 -78.3125 76.171875 -78.3125 C 75.210938 -78.3125 73.019531 -79.070312 69.59375 -80.59375 C 65.875 -82.125 62.703125 -83.289062 60.078125 -84.09375 C 57.460938 -84.90625 54.726562 -85.3125 51.875 -85.3125 C 49.394531 -85.3125 47.367188 -84.71875 45.796875 -83.53125 C 44.222656 -82.34375 43.4375 -80.601562 43.4375 -78.3125 C 43.4375 -76.125 44.222656 -74.382812 45.796875 -73.09375 C 47.367188 -71.8125 50.15625 -70.597656 54.15625 -69.453125 C 60.632812 -67.640625 66.113281 -65.46875 70.59375 -62.9375 C 75.070312 -60.414062 78.644531 -56.84375 81.3125 -52.21875 C 83.976562 -47.601562 85.3125 -41.675781 85.3125 -34.4375 C 85.3125 -26.34375 83.476562 -19.507812 79.8125 -13.9375 C 76.144531 -8.363281 71.210938 -4.191406 65.015625 -1.421875 C 58.828125 1.335938 51.875 2.71875 44.15625 2.71875 C 37.769531 2.71875 29.71875 1.570312 20 -0.71875 C 18.289062 -1.1875 17.289062 -1.421875 17 -1.421875 C 16.332031 -1.421875 15.378906 -1.085938 14.140625 -0.421875 C 12.910156 0.242188 11.722656 0.578125 10.578125 0.578125 C 8.003906 0.578125 6.382812 -0.113281 5.71875 -1.5 C 5.050781 -2.882812 4.71875 -4.957031 4.71875 -7.71875 C 4.71875 -11.625 4.503906 -14.910156 4.078125 -17.578125 C 3.648438 -20.242188 3.097656 -23.003906 2.421875 -25.859375 C 1.753906 -28.535156 1.421875 -30.441406 1.421875 -31.578125 C 1.421875 -32.722656 1.875 -33.769531 2.78125 -34.71875 C 3.6875 -35.675781 4.757812 -36.15625 6 -36.15625 C 6.851562 -36.15625 7.78125 -35.941406 8.78125 -35.515625 C 9.789062 -35.085938 10.910156 -34.539062 12.140625 -33.875 C 12.910156 -33.488281 14.769531 -32.53125 17.71875 -31 C 20.675781 -29.476562 23.628906 -28.289062 26.578125 -27.4375 C 29.535156 -26.582031 32.347656 -26.15625 35.015625 -26.15625 C 37.390625 -26.15625 39.289062 -26.75 40.71875 -27.9375 C 42.15625 -29.125 42.875 -30.863281 42.875 -33.15625 C 42.875 -35.632812 42.039062 -37.441406 40.375 -38.578125 C 38.707031 -39.722656 35.300781 -41.109375 30.15625 -42.734375 C 20.914062 -45.679688 14.101562 -49.628906 9.71875 -54.578125 C 5.332031 -59.535156 3.140625 -66.640625 3.140625 -75.890625 C 3.140625 -84.171875 4.925781 -91.191406 8.5 -96.953125 C 12.070312 -102.722656 16.90625 -107.015625 23 -109.828125 C 29.101562 -112.640625 35.96875 -114.046875 43.59375 -114.046875 Z M 43.59375 -114.046875 "/></g></g></g><g fill="#e60160" fill-opacity="1"><g transform="translate(265.04031, 253.338759)"><g><path d="M 9.140625 -112.328125 C 10.191406 -112.328125 12.429688 -112.226562 15.859375 -112.03125 C 23.765625 -111.5625 32.390625 -111.328125 41.734375 -111.328125 C 46.492188 -111.328125 53.640625 -111.5625 63.171875 -112.03125 L 71.453125 -112.328125 C 73.265625 -112.328125 74.625 -112.085938 75.53125 -111.609375 C 76.4375 -111.128906 77.125 -110.175781 77.59375 -108.75 C 78.070312 -107.320312 78.3125 -105.128906 78.3125 -102.171875 C 78.40625 -98.648438 78.640625 -95.601562 79.015625 -93.03125 C 79.398438 -90.457031 79.925781 -87.695312 80.59375 -84.75 C 81.070312 -82.363281 81.3125 -80.789062 81.3125 -80.03125 C 81.3125 -78.789062 80.878906 -77.71875 80.015625 -76.8125 C 79.160156 -75.90625 77.972656 -75.453125 76.453125 -75.453125 C 75.304688 -75.453125 73.78125 -75.976562 71.875 -77.03125 C 70.445312 -77.789062 69.085938 -78.382812 67.796875 -78.8125 C 66.515625 -79.238281 65.066406 -79.453125 63.453125 -79.453125 C 61.828125 -79.453125 60.703125 -79.164062 60.078125 -78.59375 C 59.460938 -78.019531 59.15625 -76.972656 59.15625 -75.453125 L 59.15625 -16.296875 C 59.15625 -13.910156 59.347656 -12.144531 59.734375 -11 C 60.117188 -9.851562 60.644531 -8.804688 61.3125 -7.859375 C 61.78125 -7.191406 62.109375 -6.59375 62.296875 -6.0625 C 62.492188 -5.539062 62.59375 -4.851562 62.59375 -4 C 62.59375 -2.476562 62.140625 -1.265625 61.234375 -0.359375 C 60.328125 0.546875 59.160156 1 57.734375 1 C 57.160156 1 55.46875 0.832031 52.65625 0.5 C 49.84375 0.164062 45.914062 0 40.875 0 C 36.300781 0 30.296875 0.332031 22.859375 1 C 21.335938 1 20.125 0.523438 19.21875 -0.421875 C 18.3125 -1.378906 17.859375 -2.664062 17.859375 -4.28125 C 17.859375 -5.332031 18.289062 -6.476562 19.15625 -7.71875 C 19.820312 -8.863281 20.367188 -10.050781 20.796875 -11.28125 C 21.222656 -12.519531 21.4375 -14.285156 21.4375 -16.578125 L 21.4375 -75.03125 C 21.4375 -76.832031 21.101562 -78.09375 20.4375 -78.8125 C 19.769531 -79.53125 18.484375 -79.890625 16.578125 -79.890625 C 14.859375 -79.890625 13.472656 -79.671875 12.421875 -79.234375 C 11.378906 -78.804688 10.191406 -78.210938 8.859375 -77.453125 C 8.671875 -77.359375 8.144531 -77.046875 7.28125 -76.515625 C 6.425781 -75.992188 5.476562 -75.734375 4.4375 -75.734375 C 2.8125 -75.734375 1.5 -76.207031 0.5 -77.15625 C -0.5 -78.113281 -1 -79.117188 -1 -80.171875 C -1 -81.023438 -0.664062 -82.882812 0 -85.75 C 1.71875 -91.84375 2.71875 -98.128906 3 -104.609375 C 3.1875 -107.554688 3.660156 -109.578125 4.421875 -110.671875 C 5.191406 -111.773438 6.765625 -112.328125 9.140625 -112.328125 Z M 9.140625 -112.328125 "/></g></g></g></g></g></svg>